<mxfile host="app.diagrams.net" agent="Mozilla/5.0 (Windows NT 10.0; Win64; x64) AppleWebKit/537.36 (KHTML, like Gecko) Chrome/127.0.0.0 Safari/537.36 Edg/127.0.0.0" version="24.7.7">
  <diagram name="Page-1" id="2a216829-ef6e-dabb-86c1-c78162f3ba2b">
    <mxGraphModel dx="1268" dy="883" grid="1" gridSize="10" guides="1" tooltips="1" connect="1" arrows="1" fold="1" page="1" pageScale="1" pageWidth="1169" pageHeight="827" background="none" math="0" shadow="0">
      <root>
        <mxCell id="0" />
        <mxCell id="1" parent="0" />
        <mxCell id="7a84cebc1def654-8" value="磁悬浮集团" style="shape=ext;rounded=1;html=1;whiteSpace=wrap;" parent="1" vertex="1">
          <mxGeometry x="870" y="345" width="120" height="80" as="geometry" />
        </mxCell>
        <mxCell id="YLKbxaUkC0cMNsDM5zvM-1" value="磁悬浮路网管理" style="rounded=1;whiteSpace=wrap;html=1;" vertex="1" parent="1">
          <mxGeometry x="705" y="490" width="120" height="60" as="geometry" />
        </mxCell>
        <mxCell id="YLKbxaUkC0cMNsDM5zvM-2" value="" style="endArrow=classic;html=1;rounded=0;exitX=0.5;exitY=1;exitDx=0;exitDy=0;entryX=0.25;entryY=0;entryDx=0;entryDy=0;" edge="1" parent="1" source="YLKbxaUkC0cMNsDM5zvM-35" target="YLKbxaUkC0cMNsDM5zvM-1">
          <mxGeometry relative="1" as="geometry">
            <mxPoint x="900" y="360" as="sourcePoint" />
            <mxPoint x="1060" y="360" as="targetPoint" />
          </mxGeometry>
        </mxCell>
        <mxCell id="YLKbxaUkC0cMNsDM5zvM-3" value="30%" style="edgeLabel;resizable=0;html=1;;align=center;verticalAlign=middle;" connectable="0" vertex="1" parent="YLKbxaUkC0cMNsDM5zvM-2">
          <mxGeometry relative="1" as="geometry" />
        </mxCell>
        <mxCell id="YLKbxaUkC0cMNsDM5zvM-7" value="zhuowine" style="rounded=1;whiteSpace=wrap;html=1;" vertex="1" parent="1">
          <mxGeometry x="705" y="220" width="120" height="60" as="geometry" />
        </mxCell>
        <mxCell id="YLKbxaUkC0cMNsDM5zvM-8" value="lsyyyy01" style="rounded=1;whiteSpace=wrap;html=1;" vertex="1" parent="1">
          <mxGeometry x="870" y="220" width="120" height="60" as="geometry" />
        </mxCell>
        <mxCell id="YLKbxaUkC0cMNsDM5zvM-9" value="" style="endArrow=classic;html=1;rounded=0;exitX=0.5;exitY=1;exitDx=0;exitDy=0;entryX=0.75;entryY=0;entryDx=0;entryDy=0;" edge="1" parent="1" source="YLKbxaUkC0cMNsDM5zvM-8" target="7a84cebc1def654-8">
          <mxGeometry relative="1" as="geometry">
            <mxPoint x="850" y="340" as="sourcePoint" />
            <mxPoint x="950" y="340" as="targetPoint" />
          </mxGeometry>
        </mxCell>
        <mxCell id="YLKbxaUkC0cMNsDM5zvM-10" value="49%" style="edgeLabel;resizable=0;html=1;;align=center;verticalAlign=middle;" connectable="0" vertex="1" parent="YLKbxaUkC0cMNsDM5zvM-9">
          <mxGeometry relative="1" as="geometry" />
        </mxCell>
        <mxCell id="YLKbxaUkC0cMNsDM5zvM-11" value="" style="endArrow=classic;html=1;rounded=0;exitX=0.5;exitY=1;exitDx=0;exitDy=0;entryX=0.375;entryY=0;entryDx=0;entryDy=0;entryPerimeter=0;" edge="1" parent="1" source="YLKbxaUkC0cMNsDM5zvM-7" target="7a84cebc1def654-8">
          <mxGeometry relative="1" as="geometry">
            <mxPoint x="750" y="280" as="sourcePoint" />
            <mxPoint x="930" y="340" as="targetPoint" />
          </mxGeometry>
        </mxCell>
        <mxCell id="YLKbxaUkC0cMNsDM5zvM-12" value="51%" style="edgeLabel;resizable=0;html=1;;align=center;verticalAlign=middle;" connectable="0" vertex="1" parent="YLKbxaUkC0cMNsDM5zvM-11">
          <mxGeometry relative="1" as="geometry" />
        </mxCell>
        <mxCell id="YLKbxaUkC0cMNsDM5zvM-14" value="磁悬浮Pass" style="rounded=1;whiteSpace=wrap;html=1;" vertex="1" parent="1">
          <mxGeometry x="870" y="490" width="120" height="60" as="geometry" />
        </mxCell>
        <mxCell id="YLKbxaUkC0cMNsDM5zvM-15" value="" style="endArrow=classic;html=1;rounded=0;exitX=0.5;exitY=1;exitDx=0;exitDy=0;entryX=0.5;entryY=0;entryDx=0;entryDy=0;" edge="1" parent="1" source="7a84cebc1def654-8" target="YLKbxaUkC0cMNsDM5zvM-14">
          <mxGeometry relative="1" as="geometry">
            <mxPoint x="850" y="440" as="sourcePoint" />
            <mxPoint x="950" y="440" as="targetPoint" />
          </mxGeometry>
        </mxCell>
        <mxCell id="YLKbxaUkC0cMNsDM5zvM-16" value="100%" style="edgeLabel;resizable=0;html=1;;align=center;verticalAlign=middle;" connectable="0" vertex="1" parent="YLKbxaUkC0cMNsDM5zvM-15">
          <mxGeometry relative="1" as="geometry" />
        </mxCell>
        <mxCell id="YLKbxaUkC0cMNsDM5zvM-20" value="服务器" style="shape=ext;rounded=1;html=1;whiteSpace=wrap;" vertex="1" parent="1">
          <mxGeometry x="705" y="345" width="120" height="80" as="geometry" />
        </mxCell>
        <mxCell id="YLKbxaUkC0cMNsDM5zvM-21" value="" style="endArrow=classic;html=1;rounded=0;exitX=0.75;exitY=1;exitDx=0;exitDy=0;entryX=0.75;entryY=0;entryDx=0;entryDy=0;" edge="1" parent="1" source="YLKbxaUkC0cMNsDM5zvM-20" target="YLKbxaUkC0cMNsDM5zvM-1">
          <mxGeometry relative="1" as="geometry">
            <mxPoint x="830" y="440" as="sourcePoint" />
            <mxPoint x="930" y="440" as="targetPoint" />
          </mxGeometry>
        </mxCell>
        <mxCell id="YLKbxaUkC0cMNsDM5zvM-22" value="70%" style="edgeLabel;resizable=0;html=1;;align=center;verticalAlign=middle;" connectable="0" vertex="1" parent="YLKbxaUkC0cMNsDM5zvM-21">
          <mxGeometry relative="1" as="geometry" />
        </mxCell>
        <mxCell id="YLKbxaUkC0cMNsDM5zvM-23" value="磁悬浮机器" style="rounded=1;whiteSpace=wrap;html=1;" vertex="1" parent="1">
          <mxGeometry x="940" y="590" width="120" height="60" as="geometry" />
        </mxCell>
        <mxCell id="YLKbxaUkC0cMNsDM5zvM-24" value="磁悬浮商店" style="rounded=1;whiteSpace=wrap;html=1;" vertex="1" parent="1">
          <mxGeometry x="780" y="590" width="120" height="60" as="geometry" />
        </mxCell>
        <mxCell id="YLKbxaUkC0cMNsDM5zvM-25" value="" style="endArrow=classic;html=1;rounded=0;exitX=0.75;exitY=1;exitDx=0;exitDy=0;entryX=0.567;entryY=0.021;entryDx=0;entryDy=0;entryPerimeter=0;" edge="1" parent="1" source="YLKbxaUkC0cMNsDM5zvM-14" target="YLKbxaUkC0cMNsDM5zvM-23">
          <mxGeometry relative="1" as="geometry">
            <mxPoint x="1030" y="440" as="sourcePoint" />
            <mxPoint x="1130" y="440" as="targetPoint" />
          </mxGeometry>
        </mxCell>
        <mxCell id="YLKbxaUkC0cMNsDM5zvM-26" value="100%" style="edgeLabel;resizable=0;html=1;;align=center;verticalAlign=middle;" connectable="0" vertex="1" parent="YLKbxaUkC0cMNsDM5zvM-25">
          <mxGeometry relative="1" as="geometry" />
        </mxCell>
        <mxCell id="YLKbxaUkC0cMNsDM5zvM-28" value="" style="endArrow=classic;html=1;rounded=0;exitX=0.25;exitY=1;exitDx=0;exitDy=0;entryX=0.5;entryY=0;entryDx=0;entryDy=0;" edge="1" parent="1" source="YLKbxaUkC0cMNsDM5zvM-14" target="YLKbxaUkC0cMNsDM5zvM-24">
          <mxGeometry relative="1" as="geometry">
            <mxPoint x="1030" y="440" as="sourcePoint" />
            <mxPoint x="1130" y="440" as="targetPoint" />
          </mxGeometry>
        </mxCell>
        <mxCell id="YLKbxaUkC0cMNsDM5zvM-29" value="100%" style="edgeLabel;resizable=0;html=1;;align=center;verticalAlign=middle;" connectable="0" vertex="1" parent="YLKbxaUkC0cMNsDM5zvM-28">
          <mxGeometry relative="1" as="geometry" />
        </mxCell>
        <mxCell id="YLKbxaUkC0cMNsDM5zvM-35" value="其他投资方&lt;div&gt;利益联合体&lt;/div&gt;" style="shape=ext;rounded=1;html=1;whiteSpace=wrap;" vertex="1" parent="1">
          <mxGeometry x="550" y="345" width="120" height="80" as="geometry" />
        </mxCell>
      </root>
    </mxGraphModel>
  </diagram>
</mxfile>
